<svg xmlns="http://www.w3.org/2000/svg" viewBox="0 0 600 170">
  <g>
    <!-- Squares -->
    <rect x="0" y="0" width="80" height="80" fill="#F25022"/>
    <rect x="90" y="0" width="80" height="80" fill="#7FBA00"/>
    <rect x="0" y="90" width="80" height="80" fill="#00A4EF"/>
    <rect x="90" y="90" width="80" height="80" fill="#FFB900"/>
    <!-- Microsoft Text -->
    <path d="M215.98 73.44V41.77h15.89l1.6 5.41c2.52-3.65 6.92-6.37 13.34-6.37 5.81 0 10.22 1.96 12.74 5.61 2.77-3.65 7.43-5.61 13.34-5.61 8.53 0 15.2 4.84 15.2 15.31v17.32h-14.44V58.34c0-4.33-2.02-6.62-6.17-6.62-4.15 0-6.42 2.29-6.42 6.62v15.1h-14.44V58.34c0-4.33-2.27-6.62-6.42-6.62s-6.17 2.29-6.17 6.62v15.1h-14.44zm96.03-32.63c11.89 0 20.42 8.15 20.42 20.54 0 12.14-8.53 20.54-20.42 20.54-11.89 0-20.42-8.4-20.42-20.54 0-12.39 8.53-20.54 20.42-20.54zm0 10.73c-4.9 0-7.17 3.9-7.17 9.81 0 5.66 2.27 9.81 7.17 9.81 4.65 0 7.17-4.15 7.17-9.81 0-5.91-2.52-9.81-7.17-9.81zm51.81-10.73c11.64 0 20.17 8.15 20.17 20.54 0 12.14-8.53 20.54-20.17 20.54-5.56 0-9.71-1.96-12.48-5.41v24.69h-14.44V41.77h12.99l1.01 4.84c2.77-3.65 7.17-5.53 12.99-5.53zm-4.4 10.73c-4.9 0-7.17 3.9-7.17 9.81 0 5.66 2.27 9.81 7.17 9.81 4.65 0 7.17-4.15 7.17-9.81 0-5.91-2.52-9.81-7.17-9.81zm48.28-10.73c11.89 0 20.42 8.15 20.42 20.54 0 12.14-8.53 20.54-20.42 20.54-11.89 0-20.42-8.4-20.42-20.54 0-12.39 8.53-20.54 20.42-20.54zm0 10.73c-4.9 0-7.17 3.9-7.17 9.81 0 5.66 2.27 9.81 7.17 9.81 4.65 0 7.17-4.15 7.17-9.81 0-5.91-2.52-9.81-7.17-9.81zm38.82-9.81h14.44v41.71h-14.44V41.77zm28.63-.51h12.99l1.01 4.84c2.77-3.65 7.17-5.53 12.99-5.53 8.78 0 15.2 4.84 15.2 15.31v27.09h-14.44V58.34c0-4.33-2.27-6.62-6.42-6.62s-6.17 2.29-6.17 6.62v15.1h-14.44V41.26z" fill="#666666"/>
  </g>
</svg> 